<svg width="50" height="42" viewBox="0 0 50 42" fill="none" xmlns="http://www.w3.org/2000/svg">
<path fill-rule="evenodd" clip-rule="evenodd" d="M4.81197 4.88427L7.23518 18.7142H22.2111C22.8228 18.7142 23.4094 18.955 23.8419 19.3837C24.2744 19.8123 24.5174 20.3937 24.5174 20.9999C24.5174 21.6061 24.2744 22.1875 23.8419 22.6161C23.4094 23.0447 22.8228 23.2856 22.2111 23.2856H7.23518L4.81197 37.1155L42.7499 20.9999L4.81197 4.88427ZM2.95767 20.9999L0.11317 4.78675C-0.0140326 4.06156 0.0587476 3.3158 0.323823 2.62822C0.588899 1.94063 1.03643 1.33676 1.61915 0.880387C2.20186 0.42401 2.89813 0.132069 3.63441 0.0354004C4.37069 -0.0612683 5.11964 0.0409239 5.80217 0.331183L47.0151 17.8365C47.639 18.1025 48.1706 18.5439 48.5441 19.1062C48.9176 19.6684 49.1166 20.3267 49.1166 20.9999C49.1166 21.673 48.9176 22.3314 48.5441 22.8936C48.1706 23.4558 47.639 23.8972 47.0151 24.1633L5.79909 41.6686C5.1163 41.9591 4.36699 42.0613 3.63039 41.9646C2.89378 41.8678 2.19724 41.5755 1.61441 41.1188C1.03159 40.662 0.58412 40.0576 0.319323 39.3696C0.0545252 38.6815 -0.0177649 37.9354 0.110095 37.21L2.96074 20.9999H2.95767Z" fill="#C4C4C4"/>
</svg>
