<svg width="40" height="38" viewBox="0 0 40 38" fill="none" xmlns="http://www.w3.org/2000/svg">
<path fill-rule="evenodd" clip-rule="evenodd" d="M19.5757 0C8.78695 0 0.048584 8.71756 0.048584 19.4806C0.048584 28.1007 5.63821 35.3816 13.4002 37.9628C14.3766 38.1332 14.7427 37.5488 14.7427 37.0375C14.7427 36.5748 14.7183 35.0407 14.7183 33.4092C9.81213 34.3102 8.54286 32.216 8.15232 31.1202C7.93264 30.5602 6.9807 28.8313 6.1508 28.3686C5.46735 28.0033 4.49099 27.1024 6.12639 27.078C7.66415 27.0537 8.76254 28.4904 9.12868 29.0748C10.8861 32.0212 13.6931 31.1933 14.8159 30.6819C14.9868 29.4157 15.4994 28.5634 16.0608 28.0764C11.716 27.5894 7.17597 25.9092 7.17597 18.4579C7.17597 16.3393 7.93264 14.5861 9.1775 13.2224C8.98222 12.7354 8.29878 10.7387 9.37277 8.06009C9.37277 8.06009 11.0082 7.54873 14.7427 10.0569C16.3049 9.61854 17.9647 9.39938 19.6245 9.39938C21.2843 9.39938 22.9441 9.61854 24.5063 10.0569C28.2408 7.52438 29.8762 8.06009 29.8762 8.06009C30.9502 10.7387 30.2667 12.7354 30.0715 13.2224C31.3163 14.5861 32.073 16.315 32.073 18.4579C32.073 25.9335 27.5085 27.5894 23.1638 28.0764C23.8716 28.6852 24.4818 29.854 24.4818 31.6803C24.4818 34.2858 24.4574 36.38 24.4574 37.0375C24.4574 37.5488 24.8236 38.1576 25.7999 37.9628C29.6763 36.6571 33.0448 34.1717 35.4311 30.8562C37.8175 27.5408 39.1016 23.5622 39.1027 19.4806C39.1027 8.71756 30.3644 0 19.5757 0Z" fill="#C3C3C3"/>
</svg>
