<?xml version="1.0" standalone="no"?>
<!DOCTYPE svg PUBLIC "-//W3C//DTD SVG 20010904//EN"
 "http://www.w3.org/TR/2001/REC-SVG-20010904/DTD/svg10.dtd">
<svg version="1.0" xmlns="http://www.w3.org/2000/svg"
 width="272.000000pt" height="272.000000pt" viewBox="0 0 272.000000 272.000000"
 preserveAspectRatio="xMidYMid meet">
<metadata>
Created by potrace 1.14, written by Peter Selinger 2001-2017
</metadata>
<g transform="translate(0.000000,272.000000) scale(0.100000,-0.100000)"
fill="#000000" stroke="none">
<path d="M1225 2524 c17 -9 43 -32 58 -50 l29 -34 -29 0 c-16 0 -37 -6 -48
-14 -11 -7 -37 -16 -57 -20 -21 -4 -51 -18 -68 -33 -34 -28 -34 -41 -1 -23 17
9 14 1 -13 -34 -43 -57 -55 -120 -34 -175 14 -35 14 -40 -3 -62 -10 -13 -21
-39 -25 -57 -4 -19 -20 -48 -36 -65 -59 -65 -88 -154 -93 -287 -3 -78 -16
-113 -55 -150 -17 -15 -31 -37 -31 -49 -1 -12 -2 -31 -3 -43 -3 -40 20 -124
45 -164 13 -21 32 -57 42 -78 20 -45 140 -208 181 -245 32 -30 32 -38 4 -47
-13 -4 -34 -15 -48 -24 -14 -10 -68 -30 -122 -45 -118 -34 -162 -69 -173 -138
-2 -12 -9 -50 -15 -84 -6 -34 -10 -77 -8 -95 1 -19 -1 -39 -5 -44 -3 -6 -9
-55 -12 -109 -4 -55 -8 -102 -11 -106 -5 -8 -5 -144 0 -179 2 -14 4 -31 5 -37
1 -10 116 -13 537 -13 l537 0 -6 36 c-6 36 -6 36 26 31 18 -3 70 -19 117 -36
101 -36 130 -38 186 -10 50 24 84 81 78 134 -3 33 -87 292 -106 328 -5 10 -12
29 -14 42 -6 34 -63 165 -87 202 -26 39 -57 55 -162 83 -44 12 -89 31 -100 41
-12 10 -35 24 -52 30 l-32 11 34 30 c39 34 159 202 180 251 7 17 23 44 34 59
69 88 71 261 3 282 -24 8 -40 72 -41 164 -1 91 -30 181 -79 244 -20 26 -38 60
-40 75 -2 16 -12 43 -23 62 -17 28 -18 39 -9 67 19 57 -7 142 -53 171 -7 5
-23 30 -37 58 -31 62 -63 77 -116 52 -36 -18 -36 -17 -60 8 -12 14 -29 25 -37
25 -8 0 -20 7 -28 16 -18 21 -77 50 -119 58 l-35 6 30 -16z"/>
</g>
</svg>
